<?xml version="1.0" encoding="UTF-8"?>
<svg version="1.1" xmlns="http://www.w3.org/2000/svg" width="460" height="460">
<path d="M0 0 C0.66 0.66 1.32 1.32 2 2 C3.46043613 2.62875919 4.94375445 3.20508162 6.4375 3.75 C11.25304005 5.61809743 15.68438441 7.8899635 20.18359375 10.41796875 C23.98078645 12.5509272 27.83565779 14.57317409 31.6875 16.60546875 C33.83711992 17.90177671 35.26880932 19.21440047 37 21 C37.94875 21.45375 38.8975 21.9075 39.875 22.375 C43.33328201 24.17330665 45.24727928 26.24727928 48 29 C50.46360732 30.77836555 52.96712322 32.47821914 55.5 34.15625 C58.30362049 36.22392011 60.57467125 38.49677748 63 41 C64.25400099 42.23562485 65.51072485 43.46848982 66.76953125 44.69921875 C68.11727642 46.02855569 69.46493096 47.35798452 70.8125 48.6875 C71.50537109 49.36361328 72.19824219 50.03972656 72.91210938 50.73632812 C73.56630859 51.38408203 74.22050781 52.03183594 74.89453125 52.69921875 C75.49112549 53.28533936 76.08771973 53.87145996 76.70239258 54.4753418 C78 56 78 56 78 58 C78.99 58.33 79.98 58.66 81 59 C84.4176069 62.07584621 86.6681442 65.08248226 89 69 C90.56210002 70.81976601 92.15986799 72.59528382 93.79296875 74.3515625 C95 76 95 76 95 79 C95.66 79 96.32 79 97 79 C101.63254049 84.50412671 105.1696799 90.84573356 108.51171875 97.1875 C109.5458266 99.14171956 110.61359173 101.07834885 111.70703125 103 C112.25746094 103.969375 112.80789063 104.93875 113.375 105.9375 C114.12910156 107.25041016 114.12910156 107.25041016 114.8984375 108.58984375 C116 111 116 111 116 115 C116.66 115 117.32 115 118 115 C122.296875 125.7421875 122.296875 125.7421875 123.11938477 127.81396484 C123.72818536 129.32524861 124.35208977 130.83050381 124.98803711 132.33056641 C127.62528072 138.6441012 129.46033925 144.97874158 131.0625 151.625 C131.44764771 153.20269165 131.44764771 153.20269165 131.84057617 154.81225586 C136.23562053 173.05817994 138.1873575 190.64067555 138.13037109 209.40673828 C138.12500232 211.49909706 138.13036496 213.59124131 138.13671875 215.68359375 C138.15286302 239.66976395 138.15286302 239.66976395 135 250 C134.46986588 252.6241639 133.96694468 255.24018851 133.5 257.875 C131.13496381 270.79105392 128.05475224 282.85404858 123 295 C122.64164062 295.90234375 122.28328125 296.8046875 121.9140625 297.734375 C117.13010191 309.61400867 111.54058139 321.02204803 104.4765625 331.71484375 C102.74359101 334.39682344 101.33150901 337.10200981 100 340 C99.34 340 98.68 340 98 340 C97.7215625 340.57234375 97.443125 341.1446875 97.15625 341.734375 C96.01726208 343.96617566 94.80063617 346.10870874 93.5 348.25 C93.0771875 348.95640625 92.654375 349.6628125 92.21875 350.390625 C91.8165625 350.92171875 91.414375 351.4528125 91 352 C90.34 352 89.68 352 89 352 C88.7628125 352.54140625 88.525625 353.0828125 88.28125 353.640625 C86.65652243 356.63250137 84.6498123 359.11159399 82.5 361.75 C81.7059375 362.73484375 80.911875 363.7196875 80.09375 364.734375 C79.4028125 365.48203125 78.711875 366.2296875 78 367 C77.34 367 76.68 367 76 367 C75.67 367.99 75.34 368.98 75 370 C74.34 370 73.68 370 73 370 C72.67 370.99 72.34 371.98 72 373 C71.34 373 70.68 373 70 373 C69.67 373.99 69.34 374.98 69 376 C68.34 376 67.68 376 67 376 C66.67 376.99 66.34 377.98 66 379 C65.34 379 64.68 379 64 379 C64 379.66 64 380.32 64 381 C62.5390625 382.5078125 62.5390625 382.5078125 60.625 384.125 C59.99851562 384.66382813 59.37203125 385.20265625 58.7265625 385.7578125 C57 387 57 387 55 387 C55 387.66 55 388.32 55 389 C53.09587525 390.6354808 51.20199329 392.13794613 49.1875 393.625 C48.64029297 394.04523438 48.09308594 394.46546875 47.52929688 394.8984375 C43.37541853 398 43.37541853 398 40 398 C40 398.66 40 399.32 40 400 C38.68 400.33 37.36 400.66 36 401 C36 401.66 36 402.32 36 403 C34.54462432 403.83848804 33.08559627 404.67063934 31.625 405.5 C30.81289063 405.9640625 30.00078125 406.428125 29.1640625 406.90625 C27 408 27 408 25 408 C25 408.66 25 409.32 25 410 C-6.67157013 426.01460823 -6.67157013 426.01460823 -22 430 C-25.31218684 430.92973666 -28.59883484 431.8633514 -31.85546875 432.97265625 C-71.82368822 446.03059628 -125.96492368 444.21341986 -164.7578125 427.93481445 C-167.79176827 426.66989539 -170.88943164 425.62258756 -174 424.5625 C-179.1026726 422.76025594 -183.87873365 420.71290658 -188.66796875 418.203125 C-192.36711451 416.29468799 -196.1807172 414.65133242 -200 413 C-200 412.34 -200 411.68 -200 411 C-201.175625 410.690625 -201.175625 410.690625 -202.375 410.375 C-207.24735302 408.5268661 -211.77926645 406.0696244 -216 403 C-216 402.34 -216 401.68 -216 401 C-218.65228812 399.92474806 -221.28368454 398.90543849 -224 398 C-225.66666667 396.33333333 -227.33333333 394.66666667 -229 393 C-230.25598757 392.08346853 -231.52724279 391.1875135 -232.8125 390.3125 C-233.864375 389.549375 -234.91625 388.78625 -236 388 C-236 387.34 -236 386.68 -236 386 C-236.99 386 -237.98 386 -239 386 C-239 385.34 -239 384.68 -239 384 C-239.66 384 -240.32 384 -241 384 C-242.68933922 382.3563186 -244.35259924 380.6857124 -246 379 C-246.78375 378.401875 -247.5675 377.80375 -248.375 377.1875 C-252.87167876 373.4402677 -256.50286578 368.89343445 -260.125 364.3125 C-261.98774053 361.92332506 -261.98774053 361.92332506 -264.33984375 359.71875 C-266.98673008 357.0135622 -269.19715462 354.23452946 -271.4375 351.1875 C-274.00821307 347.7001977 -276.59170045 344.23325756 -279.25 340.8125 C-282.28057508 336.77173322 -284.6321394 332.45127042 -287 328 C-287.76843543 326.62365846 -288.53932057 325.24868213 -289.3125 323.875 C-289.72371094 323.12734375 -290.13492187 322.3796875 -290.55859375 321.609375 C-291.639402 319.65278988 -292.73891089 317.7065154 -293.84765625 315.765625 C-299.05546278 306.49148381 -302.82810424 296.97569683 -306.31103516 286.93725586 C-306.87995558 285.33754518 -307.50328588 283.75729752 -308.140625 282.18359375 C-309.21275775 279.45940191 -309.7718622 276.67963784 -310.37109375 273.8203125 C-310.98927811 271.04808203 -311.69591399 268.30652675 -312.41850281 265.55995178 C-316.8149559 248.63943045 -318.51453795 232.54097186 -318.44604492 215.06103516 C-318.43754623 211.76791507 -318.46639805 208.47654358 -318.49804688 205.18359375 C-318.54451717 191.03566893 -317.04645843 177.80307389 -314 164 C-313.59696488 162.11752165 -313.19397025 160.23503464 -312.79101562 158.35253906 C-308.97120951 140.58282146 -302.55886381 124.0375459 -294.40234375 107.82421875 C-293.12590669 105.25356695 -292.02445151 102.67933471 -291 100 C-290.34 100 -289.68 100 -289 100 C-288.75507813 99.32582031 -288.51015625 98.65164062 -288.2578125 97.95703125 C-286.72738164 94.35909286 -284.84156692 91.06123937 -282.875 87.6875 C-282.50246094 87.04232422 -282.12992187 86.39714844 -281.74609375 85.73242188 C-280.83367787 84.15324055 -279.91724491 82.57638136 -279 81 C-278.34 81 -277.68 81 -277 81 C-276.773125 80.319375 -276.54625 79.63875 -276.3125 78.9375 C-274.38320936 74.61956381 -271.76653168 70.75357424 -268.40234375 67.4140625 C-266.88601455 66.03226052 -266.88601455 66.03226052 -266 64 C-265.34 64 -264.68 64 -264 64 C-263.505 62.515 -263.505 62.515 -263 61 C-262.34 61 -261.68 61 -261 61 C-260.505 59.515 -260.505 59.515 -260 58 C-259.34 58 -258.68 58 -258 58 C-257.5970874 57.10921753 -257.5970874 57.10921753 -257.18603516 56.20043945 C-255.99467768 53.99012555 -254.79788102 52.55352817 -253.0234375 50.79296875 C-252.43884766 50.20950684 -251.85425781 49.62604492 -251.25195312 49.02490234 C-250.63255859 48.41855957 -250.01316406 47.8122168 -249.375 47.1875 C-248.74271484 46.56311035 -248.11042969 45.9387207 -247.45898438 45.29541016 C-236.56489541 34.59964948 -236.56489541 34.59964948 -230.5625 30.6875 C-227.91744289 29.252416 -227.91744289 29.252416 -227 27 C-226.01 27 -225.02 27 -224 27 C-224 26.34 -224 25.68 -224 25 C-218.70588235 21 -218.70588235 21 -215 21 C-214.67 20.01 -214.34 19.02 -214 18 C-211.82204721 16.75292255 -209.70878032 15.67077355 -207.4375 14.625 C-203.44094985 12.71546453 -199.5144005 10.8222815 -195.8125 8.375 C-191.14558346 5.33352661 -186.09010567 3.22876014 -181 1 C-180.29359375 0.66097656 -179.5871875 0.32195313 -178.859375 -0.02734375 C-170.42972798 -4.0330348 -161.34211763 -6.48851531 -152.3828125 -9.0234375 C-150.24231808 -9.64136314 -148.11412795 -10.3053136 -146.0078125 -11.03125 C-100.83340997 -25.5809277 -42.84941663 -18.08324004 0 0 Z " fill="#000000" transform="translate(319,19)"/>
<path d="M0 0 C3.0625 2.25 3.0625 2.25 5 4 C5.80244141 3.58427734 5.80244141 3.58427734 6.62109375 3.16015625 C9.39397807 1.80786291 12.21323383 0.62028088 15.0625 -0.5625 C16.10535156 -0.99691406 17.14820313 -1.43132812 18.22265625 -1.87890625 C26.23166108 -5.11179568 36.58129005 -5.52178993 44.9765625 -3.1640625 C51.99334378 0.42872241 56.42494683 6.67692451 59 14 C59.26742554 16.43458557 59.26742554 16.43458557 59.29052734 19.00219727 C59.30328705 19.96992569 59.31604675 20.93765411 59.32919312 21.93470764 C59.33141876 22.96816818 59.33364441 24.00162872 59.3359375 25.06640625 C59.3459227 26.6729734 59.3459227 26.6729734 59.35610962 28.31199646 C59.36621869 30.57215663 59.37092718 32.83234654 59.37060547 35.0925293 C59.37498888 38.55371917 59.41135638 42.01364411 59.44921875 45.47460938 C59.45508513 47.67187064 59.45905572 49.86913796 59.4609375 52.06640625 C59.47530853 53.10189102 59.48967957 54.13737579 59.50448608 55.20423889 C59.45888103 62.35322373 59.45888103 62.35322373 57.09619141 65.68334961 C55 67 55 67 53 67 C53 67.66 53 68.32 53 69 C42.33160718 69.76567413 42.33160718 69.76567413 39.125 67.921875 C37.8125 66.5625 37.8125 66.5625 36 64 C35.67 63.67 35.34 63.34 35 63 C34.876977 60.55115678 34.81392054 58.12614954 34.7890625 55.67578125 C34.76097495 54.15689062 34.73231038 52.63801056 34.703125 51.11914062 C34.66198942 48.72078967 34.62511186 46.32263222 34.59863281 43.92407227 C34.57087984 41.61172324 34.52498898 39.30027776 34.4765625 36.98828125 C34.47330963 36.27867752 34.47005676 35.56907379 34.46670532 34.83796692 C34.35285819 30.18535626 33.35244793 27.00134908 31 23 C26.170744 23.02190139 22.12411034 23.3968687 18.1875 26.375 C9.8612449 34.88504621 10.45346843 46.71227067 10.5 57.8125 C10.51210957 60.73632417 10.49828264 63.65836299 10.46875 66.58203125 C10.47326172 67.86311768 10.47777344 69.1442041 10.48242188 70.46411133 C9.91352999 74.63377792 8.6324237 76.75384041 6 80 C1.7567553 82.8288298 -2.01734529 82.65268001 -7 82 C-10.65774585 79.86631492 -12.3949775 77.85610867 -14 74 C-14.27174377 71.79956055 -14.27174377 71.79956055 -14.30297852 69.38671875 C-14.32794151 68.0251062 -14.32794151 68.0251062 -14.35340881 66.63598633 C-14.36182297 65.66298584 -14.37023712 64.68998535 -14.37890625 63.6875 C-14.39590073 62.68162842 -14.4128952 61.67575684 -14.43040466 60.6394043 C-14.48351031 57.4263333 -14.52381191 54.21327441 -14.5625 51 C-14.60647375 47.78679215 -14.65322925 44.57368266 -14.70530701 41.3605957 C-14.73717591 39.36181017 -14.76409318 37.36293822 -14.78553772 35.36401367 C-14.79902756 34.45627197 -14.8125174 33.54853027 -14.82641602 32.61328125 C-14.83592789 31.81704346 -14.84543976 31.02080566 -14.85523987 30.20043945 C-15.00258836 27.9606554 -15.22299784 26.10905842 -16 24 C-18.79007601 21.71304616 -18.79007601 21.71304616 -21.8125 22.125 C-25.50596445 23.1388922 -27.97232223 24.67643334 -31 27 C-31.33 27.66 -31.66 28.32 -32 29 C-32.66 29 -33.32 29 -34 29 C-34.12375 29.598125 -34.2475 30.19625 -34.375 30.8125 C-35 33 -35 33 -37 36 C-38.46374274 40.89873662 -38.15333191 46.05527956 -38.17578125 51.12109375 C-38.19897246 53.12826578 -38.22308951 55.13542728 -38.24804688 57.14257812 C-38.28318301 60.29377375 -38.3125301 63.44457934 -38.32592773 66.59594727 C-38.34141988 69.64646975 -38.3816256 72.69586896 -38.42578125 75.74609375 C-38.42387283 76.68376083 -38.42196442 77.62142792 -38.41999817 78.58750916 C-38.52475754 84.2053303 -39.177239 87.58645261 -43 92 C-47.24740799 94.83160532 -51.01346043 94.64522317 -56 94 C-60.15163875 91.6647032 -61.66902556 89.49426552 -63 85 C-63.30414285 81.4662836 -63.30404622 77.94361259 -63.30078125 74.3984375 C-63.30506638 73.36619049 -63.3093515 72.33394348 -63.31376648 71.27041626 C-63.31950319 69.08669771 -63.3200149 66.90296005 -63.31567383 64.71923828 C-63.31253088 61.40753758 -63.33592267 58.09674549 -63.36132812 54.78515625 C-63.36360313 52.65625112 -63.36430368 50.5273436 -63.36328125 48.3984375 C-63.372491 47.42095551 -63.38170074 46.44347351 -63.39118958 45.43637085 C-63.29927024 31.50520401 -58.56158697 19.16456993 -49 9 C-36.17253976 -2.54657058 -16.0277511 -10.44981129 0 0 Z " fill="#FDFDFD" transform="translate(190,241)"/>
<path d="M0 0 C1.17037592 0.63908685 2.33719325 1.28474257 3.5 1.9375 C4.83051054 2.60978262 6.16316725 3.27787858 7.5 3.9375 C7.90089844 3.53917969 8.30179688 3.14085937 8.71484375 2.73046875 C14.35077393 -2.52206482 20.06684716 -5.10134147 27.8125 -5.4375 C36.04782929 -5.13462449 44.10697044 -2.59099138 51.5 0.9375 C51.5 1.5975 51.5 2.2575 51.5 2.9375 C52.20125 3.164375 52.9025 3.39125 53.625 3.625 C62.15501684 7.51913812 68.34968161 15.57737394 71.8125 24.125 C72.39747496 25.72110815 72.95936166 27.32583405 73.5 28.9375 C74.0101062 30.22974487 74.0101062 30.22974487 74.53051758 31.5480957 C75.70862422 35.66687044 75.82380392 39.36496048 75.8359375 43.625 C75.8459227 44.85609497 75.8459227 44.85609497 75.85610962 46.11206055 C75.86619342 47.83998384 75.87092797 49.56794575 75.87060547 51.29589844 C75.87498701 53.92969023 75.91137268 56.56181569 75.94921875 59.1953125 C75.95508631 60.88020264 75.95905611 62.56510069 75.9609375 64.25 C75.97530853 65.03141357 75.98967957 65.81282715 76.00448608 66.61791992 C75.9611242 71.83951393 74.9323692 74.78265253 71.5 78.9375 C67.59283342 81.58058327 63.40332969 81.17009767 58.87890625 80.6171875 C54.87911312 79.47438946 53.65967699 77.42084999 51.5 73.9375 C50.3006725 70.3395175 50.40237674 67.08092014 50.4296875 63.33984375 C50.42109477 61.80011895 50.41061569 60.26040374 50.3984375 58.72070312 C50.38183427 56.30664296 50.37479089 53.89471904 50.40039062 51.48071289 C50.48431743 42.2249215 50.46969211 35.25056632 44.34838867 27.75683594 C41.48127065 24.93478291 39.29355425 23.38594799 35.5 21.9375 C32.23456698 21.82707587 32.23456698 21.82707587 29.5 22.9375 C27.04132496 26.62551256 27.23762582 29.41397439 27.26171875 33.67578125 C27.24629554 35.23373263 27.22999164 36.7916755 27.21289062 38.34960938 C27.19646094 40.79861268 27.18749129 43.24699122 27.19458008 45.69604492 C27.19720986 48.06500315 27.16901052 50.43207569 27.13671875 52.80078125 C27.14692551 53.52598465 27.15713226 54.25118805 27.16764832 54.99836731 C27.05790291 60.74531403 25.42688487 63.04594936 21.5 66.9375 C17.82518062 69.22184718 14.59564935 69.19923254 10.4296875 68.5546875 C7.26504419 67.54251413 5.57382881 65.43829356 3.5 62.9375 C2.51 61.9475 2.51 61.9475 1.5 60.9375 C1.22875977 58.60253906 1.22875977 58.60253906 1.19140625 55.703125 C1.16626953 54.65382812 1.14113281 53.60453125 1.11523438 52.5234375 C1.08032599 50.31515897 1.04902359 48.10682023 1.02148438 45.8984375 C0.83794831 38.57490089 0.11256163 33.89381974 -4.875 28.25 C-9.8646019 23.85439833 -12.74412747 22.54009573 -19.5 22.9375 C-21.38528877 26.13758495 -21.7399145 28.49082083 -21.73828125 32.18359375 C-21.75439453 33.18583984 -21.77050781 34.18808594 -21.78710938 35.22070312 C-21.80400452 37.31959992 -21.80925692 39.41862346 -21.80273438 41.51757812 C-21.97338026 50.08840516 -21.97338026 50.08840516 -24.98046875 53.09765625 C-26.22763672 54.00837891 -26.22763672 54.00837891 -27.5 54.9375 C-27.83 55.2675 -28.16 55.5975 -28.5 55.9375 C-33.97783552 56.44999688 -38.86588888 56.89874183 -43.6875 54.0625 C-48.22718067 48.74011577 -46.88307901 40.84858578 -46.95996094 34.15551758 C-46.98641492 32.4010058 -47.02716928 30.64664479 -47.08300781 28.89282227 C-47.64361694 11.05971074 -47.64361694 11.05971074 -41.3984375 2.93481445 C-30.25521264 -8.7887867 -13.37341698 -6.62467966 0 0 Z " fill="#FBFBFB" transform="translate(132.5,158.0625)"/>
<path d="M0 0 C4.11867571 3.75526314 5.03226381 7.09487231 5.3046875 12.5078125 C5.31172215 15.9899667 5.25530078 19.45798668 5.125 22.9375 C6.19878906 22.87949219 7.27257812 22.82148438 8.37890625 22.76171875 C21.33275587 22.26951196 21.33275587 22.26951196 25.5625 25.1875 C28.83705734 28.70165909 29.02694167 30.6137125 29.375 35.3125 C29.09608664 39.35674377 28.34908521 41.56302589 26.125 44.9375 C21.8964051 48.29039707 17.99671805 48.3056832 12.8125 48.125 C11.70165039 48.10469727 11.70165039 48.10469727 10.56835938 48.08398438 C8.75358925 48.04885979 6.93919712 47.99505972 5.125 47.9375 C6.78256776 56.71285873 8.63755503 62.29910014 16.08984375 67.640625 C20.27750339 70.30915283 23.04009367 71.14783094 28.0625 71.3125 C31.82604329 71.58263267 33.84791345 71.78481965 37.1875 73.625 C40.49048353 77.56727067 42.45958541 80.77456323 42.125 86 C41.39043291 90.22174275 39.49401574 92.27362709 36.125 94.9375 C30.72403918 98.048804 25.52416489 97.48288687 19.63671875 96.14453125 C8.40340956 93.04855058 -1.99908154 88.79298313 -8.875 78.9375 C-9.35839844 78.27878906 -9.84179688 77.62007813 -10.33984375 76.94140625 C-16.80600422 67.81921899 -18.43294727 58.91406608 -19.875 47.9375 C-26.53366746 48.94913428 -30.56573425 50.82011024 -35.875 54.9375 C-36.535 54.9375 -37.195 54.9375 -37.875 54.9375 C-38.143125 55.659375 -38.41125 56.38125 -38.6875 57.125 C-39.875 59.9375 -39.875 59.9375 -41.421875 61.8984375 C-44.03547285 67.36451042 -43.31069741 73.51069176 -43.31445312 79.47851562 C-43.42968329 85.61750226 -43.76966609 89.25986118 -47.875 93.9375 C-51.58063982 97.1137627 -54.99678996 97.45414177 -59.72265625 97.296875 C-62.96390775 96.755686 -64.65700098 95.2899232 -66.875 92.9375 C-71.99017023 85.26474466 -69.94745461 70.0017826 -68.39013672 61.19580078 C-66.2451389 52.64828356 -62.52158888 43.95026468 -55.875 37.9375 C-55.215 37.9375 -54.555 37.9375 -53.875 37.9375 C-53.545 36.9475 -53.215 35.9575 -52.875 34.9375 C-42.93634566 27.03425273 -32.52745777 23.0564778 -19.875 23.9375 C-19.92720703 22.43509766 -19.92720703 22.43509766 -19.98046875 20.90234375 C-20.32028425 7.16482783 -20.32028425 7.16482783 -16.875 1.9375 C-12.15322217 -2.36765038 -5.7368112 -2.12012588 0 0 Z " fill="#FCFCFC" transform="translate(354.875,129.0625)"/>
<path d="M0 0 C3.37982136 2.23435889 4.73031837 5.1909551 6 9 C6.10949884 11.13407505 6.15899505 13.27139661 6.17700195 15.40820312 C6.18357315 16.05421478 6.19014435 16.70022644 6.19691467 17.36581421 C6.21662358 19.50429411 6.22831007 21.64270356 6.23828125 23.78125 C6.24235678 24.51498337 6.2464323 25.24871674 6.25063133 26.00468445 C6.2714903 29.89472165 6.28578796 33.78472368 6.29516602 37.67480469 C6.30617914 41.66802239 6.34051935 45.66067494 6.38033772 49.65369415 C6.40666222 52.74406878 6.41487216 55.83431258 6.41844749 58.92478943 C6.42327942 60.39501221 6.43479499 61.8652305 6.45348549 63.33534241 C6.5656257 72.74725641 6.64473222 82.77458111 0.04463196 90.1998291 C-5.94959414 95.82102714 -11.77446407 98.57246267 -20.0625 98.5 C-20.8062085 98.49572998 -21.54991699 98.49145996 -22.31616211 98.48706055 C-29.54242423 98.26784818 -35.55170235 96.25562587 -42 93 C-42.76957031 92.61585938 -43.53914063 92.23171875 -44.33203125 91.8359375 C-50.20517896 88.53439749 -55.83612475 83.49162575 -58 77 C-58.66 77 -59.32 77 -60 77 C-67.20213697 65.32757111 -68.90967969 53.40580567 -66.42578125 39.87109375 C-65.6875 37.4375 -65.6875 37.4375 -64 34 C-62.515 33.505 -62.515 33.505 -61 33 C-60.67 32.01 -60.34 31.02 -60 30 C-58.44140625 28.8671875 -58.44140625 28.8671875 -56.5625 27.875 C-55.94503906 27.54242188 -55.32757813 27.20984375 -54.69140625 26.8671875 C-47.58714585 23.22481842 -36.59246056 23.69156553 -28.88378906 25.49511719 C-25.39836638 26.65087682 -22.22632627 28.27111862 -19 30 C-19.01571045 28.97845825 -19.01571045 28.97845825 -19.03173828 27.9362793 C-19.07328878 24.85339034 -19.09932311 21.77056029 -19.125 18.6875 C-19.14175781 17.61564453 -19.15851563 16.54378906 -19.17578125 15.43945312 C-19.18544922 13.89741211 -19.18544922 13.89741211 -19.1953125 12.32421875 C-19.21102295 10.9024231 -19.21102295 10.9024231 -19.22705078 9.4519043 C-19 7 -19 7 -17 4 C-16.34 4 -15.68 4 -15 4 C-14.67 3.01 -14.34 2.02 -14 1 C-9.78468221 -1.1076589 -4.56608681 -0.6575165 0 0 Z " fill="#FCFCFC" transform="translate(419,213)"/>
<path d="M0 0 C5.03803521 3.9400019 8.41223922 8.90224403 9.33200073 15.32568359 C9.47970772 18.35925029 9.50767411 21.36916498 9.484375 24.40625 C9.49011536 26.065923 9.49011536 26.065923 9.49597168 27.75912476 C9.49868238 30.08714717 9.49138052 32.41520048 9.47460938 34.74316406 C9.45314833 38.3008207 9.47446232 41.8564673 9.5 45.4140625 C9.49735737 47.68229611 9.49223375 49.95052847 9.484375 52.21875 C9.49247192 53.2782486 9.50056885 54.33774719 9.50891113 55.42935181 C9.43222885 61.47935154 9.01706778 65.08554195 4.953125 69.6796875 C1.08271841 72.29790372 -3.10439248 71.96137829 -7.59765625 71.4375 C-11.73098967 70.15860577 -13.77470673 67.2172503 -16.046875 63.6796875 C-17.03945313 64.040625 -18.03203125 64.4015625 -19.0546875 64.7734375 C-29.16490635 68.29172352 -40.28659341 71.7001477 -50.609375 66.9921875 C-57.35565371 62.84394378 -61.65402525 57.21128016 -64.046875 49.6796875 C-65.78273642 36.03222532 -62.38252837 24.46212469 -54.046875 13.6796875 C-53.54929688 13.03 -53.05171875 12.3803125 -52.5390625 11.7109375 C-49.42787059 7.86674226 -46.35303853 5.12637133 -42.046875 2.6796875 C-41.386875 2.6796875 -40.726875 2.6796875 -40.046875 2.6796875 C-40.046875 2.0196875 -40.046875 1.3596875 -40.046875 0.6796875 C-26.74958562 -5.93683813 -13.05884849 -8.42345571 0 0 Z " fill="#FCFCFC" transform="translate(274.046875,158.3203125)"/>
<path d="M0 0 C0.89912109 -0.01998047 1.79824219 -0.03996094 2.72460938 -0.06054688 C11.1524251 -0.05445301 17.54990102 2.67314582 24.4375 7.4375 C25.13359375 7.911875 25.8296875 8.38625 26.546875 8.875 C35.29710204 15.26202704 41.50253957 22.99790749 44.6875 33.4375 C45.0366748 34.3155127 45.38584961 35.19352539 45.74560547 36.09814453 C46.94173025 40.33883783 46.93782021 44.17376612 46.8828125 48.5546875 C46.8799826 49.41184357 46.87715271 50.26899963 46.87423706 51.15213013 C46.86309999 53.87239932 46.8380076 56.59233141 46.8125 59.3125 C46.80246182 61.16405772 46.79333744 63.01562064 46.78515625 64.8671875 C46.76318188 69.3907536 46.728697 73.91406977 46.6875 78.4375 C45.6975 78.9325 45.6975 78.9325 44.6875 79.4375 C44.1925 80.9225 44.1925 80.9225 43.6875 82.4375 C39.02526545 85.54565637 34.14734696 85.04906181 28.6875 84.4375 C25.00819272 82.34534488 24.0170066 81.42601981 22.6875 77.4375 C22.57061206 75.11385454 22.50879502 72.78729776 22.4765625 70.4609375 C22.44846796 69.0533743 22.41980337 67.64582239 22.390625 66.23828125 C22.34960344 64.03337235 22.31269475 61.82866814 22.28613281 59.62353516 C22.13954071 48.40923953 21.88742942 38.84242765 13.6875 30.4375 C10.63820794 28.40463863 9.68904993 28.09921058 6.1875 28 C5.4140625 27.96003906 4.640625 27.92007812 3.84375 27.87890625 C1.48767164 28.25354292 1.48767164 28.25354292 0.078125 30.53125 C-1.61106256 34.0614622 -1.69631558 36.59021054 -1.71875 40.49609375 C-1.72958618 41.16286636 -1.74042236 41.82963898 -1.75158691 42.51661682 C-1.78568164 44.63617734 -1.80140284 46.75520209 -1.8125 48.875 C-1.82714691 51.66587359 -1.86096421 54.4555673 -1.90625 57.24609375 C-1.91333984 58.48157959 -1.92042969 59.71706543 -1.92773438 60.98999023 C-2.34581507 64.73600383 -3.4378185 67.19498384 -5.3125 70.4375 C-5.9725 70.4375 -6.6325 70.4375 -7.3125 70.4375 C-7.3125 71.0975 -7.3125 71.7575 -7.3125 72.4375 C-11.03962158 74.30106079 -15.2545732 74.00299975 -19.3125 73.4375 C-22.93781608 71.5633346 -25.00371639 69.36385083 -26.3125 65.4375 C-26.42384555 63.86957667 -26.4812996 62.2975177 -26.50537109 60.72583008 C-26.52946548 59.293377 -26.52946548 59.293377 -26.55404663 57.83198547 C-26.59866519 53.45985731 -26.63957407 49.08787907 -26.66259766 44.71557617 C-26.67913563 42.41404086 -26.70639683 40.11255646 -26.74462891 37.8112793 C-26.79958385 34.48459351 -26.82130237 31.15911074 -26.8359375 27.83203125 C-26.85860687 26.81091751 -26.88127625 25.78980377 -26.90463257 24.73774719 C-26.8799982 16.34721911 -24.26410158 11.84319414 -18.875 5.625 C-12.83422142 0.46823779 -7.64773501 -0.05953651 0 0 Z " fill="#FDFDFD" transform="translate(305.3125,237.5625)"/>
<path d="M0 0 C1.10021484 -0.0460437 1.10021484 -0.0460437 2.22265625 -0.09301758 C6.31399927 -0.09442 8.02552848 0.31234656 11.203125 2.96875 C11.87859375 3.8040625 12.5540625 4.639375 13.25 5.5 C13.745 5.995 13.745 5.995 14.25 6.5 C14.77263424 10.88266144 15.27371348 15.51751008 13.203125 19.52734375 C11.44144959 21.64653564 9.72364152 23.26317924 7.25 24.5 C5.54338411 24.62928908 3.83447636 24.72916898 2.125 24.8125 C-5.24178886 25.45769589 -10.21080105 27.46149734 -15.125 33.0625 C-19.05786282 37.995057 -20.15740911 41.76172746 -20.6875 48 C-22.46293246 66.05894199 -22.46293246 66.05894199 -27.75 73.5 C-28.10191406 74.14066406 -28.45382813 74.78132813 -28.81640625 75.44140625 C-34.40437826 85.0327015 -45.0445116 93.33021852 -55.75 96.5 C-60.28140302 97.42919219 -64.69070323 97.72388836 -69.3125 97.8125 C-70.59253906 97.84988281 -71.87257813 97.88726562 -73.19140625 97.92578125 C-77.30608019 97.43346571 -78.85516367 96.39483633 -81.75 93.5 C-84.02461385 89.77790462 -83.95986595 86.61284467 -83.296875 82.4296875 C-82.08142608 78.14088918 -79.33501448 75.89000966 -75.75 73.5 C-73.69593762 73.17123762 -71.63096855 72.90816898 -69.5625 72.6875 C-64.19197409 71.95025147 -60.580609 70.74066534 -56.23828125 67.5234375 C-54.75 66.5 -54.75 66.5 -52.75 66.5 C-52.481875 65.79875 -52.21375 65.0975 -51.9375 64.375 C-50.75 61.5 -50.75 61.5 -49.2265625 58.8828125 C-47.38936155 54.67377541 -47.2074826 51.03497803 -46.9375 46.5 C-45.70531585 32.20886414 -40.61411633 21.07449101 -29.75 11.5 C-29.09 11.5 -28.43 11.5 -27.75 11.5 C-27.42 10.51 -27.09 9.52 -26.75 8.5 C-23.95771215 6.4556464 -20.86081319 5.00193949 -17.75 3.5 C-17.09 3.17386719 -16.43 2.84773437 -15.75 2.51171875 C-10.62073175 0.39789922 -5.48166947 0.13320271 0 0 Z " fill="#FCFCFC" transform="translate(104.75,125.5)"/>
<path d="M0 0 C0.91523438 -0.05414063 1.83046875 -0.10828125 2.7734375 -0.1640625 C7.14905714 1.0467254 9.34829552 3.76457154 11.625 7.625 C12.45856641 11.15149422 12.44473811 14.54879035 12.38671875 18.16015625 C12.39008743 19.15703964 12.39345612 20.15392303 12.39692688 21.18101501 C12.39662902 23.27966494 12.38147361 25.37835955 12.35229492 27.47680664 C12.31256996 30.68185535 12.33161973 33.88277232 12.35742188 37.08789062 C12.34986334 39.13282848 12.33891047 41.1777572 12.32421875 43.22265625 C12.3346949 44.65255638 12.3346949 44.65255638 12.34538269 46.11134338 C12.25161583 50.54528995 12.07839634 53.6583056 9.22973633 57.18530273 C6.59250529 59.65543581 5.13732689 60.87235852 1.625 61.625 C-3.66744443 61.43598413 -6.62169832 60.37830168 -10.375 56.625 C-12.11908213 53.72608833 -12.62919042 51.57713615 -12.6496582 48.21118164 C-12.65919022 47.34670914 -12.66872223 46.48223663 -12.67854309 45.59156799 C-12.67763168 44.66545212 -12.67672028 43.73933624 -12.67578125 42.78515625 C-12.68006638 41.82604843 -12.6843515 40.86694061 -12.68876648 39.87876892 C-12.69450434 37.85221139 -12.69501405 35.82563327 -12.69067383 33.79907227 C-12.68751507 30.70227848 -12.7109758 27.60644126 -12.73632812 24.50976562 C-12.73860132 22.5390637 -12.73930452 20.56835922 -12.73828125 18.59765625 C-12.747491 17.67356461 -12.75670074 16.74947296 -12.76618958 15.79737854 C-12.73109348 10.90875122 -12.55637081 7.59427812 -9.375 3.625 C-6.37945646 0.7558507 -4.11658183 0.12684146 0 0 Z " fill="#FDFDFD" transform="translate(263.375,260.375)"/>
<path d="M0 0 C3.90245703 1.36547204 7.09751247 3.95283744 8.96484375 7.6875 C9.5380715 12.38608808 9.38225268 15.83722255 7.27734375 20.125 C3.86834806 23.90253576 1.51321266 24.51858703 -3.47265625 25.0625 C-7.77553006 24.60956591 -9.77094279 23.49624181 -13.03515625 20.6875 C-15.35765924 16.78147224 -15.43490265 13.16465964 -15.03515625 8.6875 C-12.2540052 2.04363916 -7.07231662 -1.30315239 0 0 Z " fill="#FAFAFA" transform="translate(266.03515625,233.3125)"/>
<path d="M0 0 C0.77766211 6.06576445 -1.50217314 10.23461203 -5 15 C-13.69406259 23.90391927 -13.69406259 23.90391927 -19 24.125 C-22 24 -22 24 -24 23 C-24.69550291 17.53533428 -24.26150485 14.72405117 -20.9375 10.25 C-17.63195655 6.36230618 -14.59405567 4.16700739 -10 2 C-9.319375 1.5875 -8.63875 1.175 -7.9375 0.75 C-5.25602551 -0.28799012 -2.84423938 -0.12928361 0 0 Z " fill="#070707" transform="translate(259,178)"/>
<path d="M0 0 C8.17314954 0.70458186 13.43185428 2.61300932 19 9 C19 9.66 19 10.32 19 11 C19.66 11 20.32 11 21 11 C23.08901197 14.39464446 23.34361606 17.04841529 23 21 C21 23 21 23 18.25 23.3125 C14.57019712 22.9586728 12.18775479 21.82157417 9 20 C9 19.34 9 18.68 9 18 C8.34 18 7.68 18 7 18 C2.01153775 12.40286597 0.23483349 7.39725495 0 0 Z " fill="#040404" transform="translate(376,262)"/>
</svg>
