<?xml version="1.0" encoding="UTF-8" standalone="no"?>
<!-- Created with Inkscape (http://www.inkscape.org/) -->

<svg
   width="210mm"
   height="297mm"
   viewBox="0 0 210 297"
   version="1.1"
   id="svg1"
   xml:space="preserve"
   inkscape:version="1.4.2 (f4327f4, 2025-05-13)"
   sodipodi:docname="certificate_stripe.svg"
   xmlns:inkscape="http://www.inkscape.org/namespaces/inkscape"
   xmlns:sodipodi="http://sodipodi.sourceforge.net/DTD/sodipodi-0.dtd"
   xmlns="http://www.w3.org/2000/svg"
   xmlns:svg="http://www.w3.org/2000/svg"><sodipodi:namedview
     id="namedview1"
     pagecolor="#505050"
     bordercolor="#eeeeee"
     borderopacity="1"
     inkscape:showpageshadow="0"
     inkscape:pageopacity="0"
     inkscape:pagecheckerboard="0"
     inkscape:deskcolor="#505050"
     inkscape:document-units="mm"
     showguides="true"
     inkscape:zoom="0.1767767"
     inkscape:cx="-1227.5374"
     inkscape:cy="347.89653"
     inkscape:window-width="1920"
     inkscape:window-height="1129"
     inkscape:window-x="-8"
     inkscape:window-y="-8"
     inkscape:window-maximized="1"
     inkscape:current-layer="layer1" /><defs
     id="defs1" /><g
     inkscape:label="Capa 1"
     inkscape:groupmode="layer"
     id="layer1"><path
       id="path2"
       style="fill:#000000;fill-opacity:1;stroke:none;stroke-width:2.5;stroke-linejoin:round"
       d="M 50.469788 0 L 50.469788 61.11875 A 85.686607 85.686607 0 0 1 107.18519 39.662695 A 85.686607 85.686607 0 0 1 163.90059 61.11875 L 163.90059 0 L 50.469788 0 z M 50.469788 189.58016 L 50.469788 296.99996 L 107.35314 240.11713 L 163.90059 296.99996 L 163.90059 189.58016 A 85.686607 85.686607 0 0 1 107.18519 211.03621 A 85.686607 85.686607 0 0 1 50.469788 189.58016 z " /><circle
       style="fill:#ffffff;fill-opacity:1;stroke:none;stroke-width:2.67108;stroke-linejoin:round;stroke-opacity:1"
       id="path6"
       cx="107.1852"
       cy="125.34945"
       r="76.32608" /><path
       style="fill:#000000;fill-opacity:1;stroke-width:1.26746"
       d="M 101.71706,202.80949 C 93.780412,201.90076 88.970293,200.96023 83.816947,199.30947 59.959009,191.6671 41.507301,173.41778 33.645548,149.6884 28.33519,133.65996 28.342807,117.19664 33.668109,100.94033 45.269852,65.524227 81.161305,43.267647 118.10026,48.583266 c 29.13404,4.192473 53.42715,24.481109 62.76918,52.422324 2.70449,8.08891 3.8325,15.25976 3.8325,24.36347 0,9.3427 -1.13183,16.33451 -4.04431,24.98345 -9.26762,27.52121 -32.98729,47.2231 -62.37686,51.81109 -3.18765,0.49763 -14.13151,0.92437 -16.56371,0.64589 z M 77.494764,162.57552 c 1.481291,-1.03754 1.578657,-1.61367 1.753959,-10.3786 0.186203,-9.31027 0.222363,-9.47508 2.635895,-12.01634 1.535704,-1.61696 2.908931,-2.34784 3.929831,-2.09161 1.493319,0.3748 1.637797,1.17658 1.81699,10.08377 0.119141,5.92278 0.294634,8.60418 0.597797,9.13477 0.613424,1.07363 2.147138,1.76405 3.918664,1.76405 1.274886,0 1.739954,-0.19169 2.783288,-1.14719 l 1.252629,-1.14719 0.169282,-6.48198 c 0.19003,-7.27604 0.386334,-7.97916 2.904266,-10.40236 1.744095,-1.67847 2.978455,-2.12492 4.008705,-1.44987 1.02444,0.67124 1.07415,0.98324 1.23235,7.73489 0.1123,4.79279 0.23177,5.86734 0.73821,6.64026 1.8326,2.7969 6.47814,2.38978 7.76083,-0.68013 0.41795,-1.00026 0.48925,-2.63225 0.39901,-9.13089 -0.12091,-8.70562 -0.18606,-9.01317 -2.41103,-11.37965 -3.07594,-3.27156 -8.64532,-3.60783 -14.143077,-0.85391 l -2.501532,1.25306 -0.755253,-0.69198 c -0.415384,-0.38058 -1.434332,-1.04673 -2.264314,-1.48033 -1.978858,-1.03378 -6.283006,-1.1082 -9.054405,-0.15654 -3.757393,1.29022 -7.725387,4.5932 -9.739353,8.10709 -1.816166,3.16877 -2.040557,4.86433 -1.929959,14.58359 l 0.09975,8.7697 1.161056,0.9688 c 0.974371,0.81304 1.461126,0.96881 3.027362,0.96881 1.143602,0 2.153906,-0.20145 2.609012,-0.52022 z m 69.423116,-4.17128 c 2.13308,-0.96812 2.41917,-1.93017 2.41612,-8.1248 -0.001,-2.81866 -0.16157,-6.10572 -0.35592,-7.3046 -0.93736,-5.78185 -5.84839,-11.2928 -11.66558,-13.09061 -2.62025,-0.8098 -6.80933,-0.88218 -8.56641,-0.14803 -1.7783,0.74302 -3.89025,2.78784 -4.60744,4.46097 -0.55255,1.28906 -0.62395,2.40877 -0.62395,9.78579 v 8.33017 l 0.86285,1.02545 c 1.62791,1.93465 4.83454,2.0172 6.67979,0.17196 1.10076,-1.10077 1.15142,-1.41295 1.2552,-7.7349 0.0784,-4.77963 0.16388,-5.49795 0.72773,-6.1201 1.06378,-1.17376 2.93638,-0.95726 4.58239,0.5298 2.50811,2.26593 2.76004,3.1315 2.97381,10.21701 0.20762,6.88199 0.31118,7.21678 2.53611,8.19888 1.37112,0.60523 2.10152,0.56721 3.7853,-0.19699 z m -26.16144,-0.67548 c 0.60403,-0.36828 1.24539,-1.05663 1.42523,-1.52964 0.50882,-1.3383 0.39932,-15.90157 -0.12675,-16.84948 -0.70983,-1.27917 -2.23544,-2.07107 -3.99461,-2.07351 -1.35305,-0.001 -1.78971,0.17355 -2.85045,1.14514 l -1.25264,1.14734 -0.10178,7.79435 c -0.073,5.58977 0.0143,8.07458 0.30863,8.78509 0.88297,2.1317 4.33212,2.95873 6.59229,1.58071 z m 48.86866,-3.64417 c 0.73777,-0.33699 1.97265,-1.30023 2.74418,-2.14056 2.33088,-2.53868 2.45484,-3.36578 2.44636,-16.32388 -0.006,-10.42774 -0.0554,-11.36308 -0.65996,-12.69499 -1.50984,-3.32666 -6.77107,-3.14415 -7.94897,0.27575 -0.22015,0.63915 -0.40877,2.63344 -0.41919,4.43174 -0.0142,2.44952 -0.12828,3.26965 -0.45488,3.26965 -0.23978,0 -0.57932,-0.1372 -0.75453,-0.3049 -0.70578,-0.67548 -4.1065,-1.37144 -6.66724,-1.36447 -3.32297,0.009 -4.83278,0.62753 -6.82304,2.79504 -1.86703,2.0333 -2.08666,2.69202 -2.08666,6.25857 0,3.52523 0.89134,6.39259 2.88871,9.29266 1.28212,1.86159 4.08574,4.38173 5.96942,5.36583 3.43647,1.79536 9.12409,2.34622 11.7658,1.13956 z m -7.71303,-9.04301 c -2.17987,-1.32938 -4.19183,-4.34874 -4.19183,-6.29068 0,-0.85475 0.0568,-0.88293 1.35872,-0.67474 2.63035,0.42061 5.7975,3.20961 6.2235,5.48043 0.37841,2.01706 -1.30724,2.75538 -3.39039,1.48499 z m -41.14685,-9.38038 c 1.91181,-1.23619 2.33604,-4.33852 0.83689,-6.12016 -1.2779,-1.5187 -2.81026,-2.10084 -4.40186,-1.67226 -2.88881,0.77787 -4.25399,3.78342 -2.90415,6.39372 1.08341,2.09509 4.31243,2.79325 6.46912,1.3987 z m -24.242624,-6.24778 c 2.068859,-0.86444 2.505765,-2.08255 2.533117,-7.0625 0.01838,-3.33512 0.105325,-4.16253 0.370516,-3.52116 0.1906,0.4611 0.546832,1.31124 0.791621,1.88918 0.68975,1.62856 2.37832,3.35427 4.1129,4.20336 2.27772,1.115 5.99995,1.03923 9.6188,-0.19575 2.07214,-0.70717 2.70817,-0.81322 2.82197,-0.47056 0.28742,0.8655 2.11392,2.2687 3.22419,2.47699 1.58791,0.29789 3.38222,-0.39098 4.36107,-1.67432 l 0.83467,-1.09431 v -8.70539 c 0,-8.68358 -0.003,-8.70974 -0.86444,-10.44012 -0.98548,-1.97759 -2.33494,-3.24132 -4.47795,-4.19345 -1.24287,-0.5522 -1.9833,-0.632622 -4.52721,-0.49169 -1.7397,0.0963 -3.68717,0.42392 -4.55039,0.76535 -2.38989,0.94525 -5.87103,3.38798 -7.35624,5.16189 -1.75507,2.09624 -3.36252,5.54432 -3.681912,7.89791 -0.138241,1.01872 -0.335154,1.93603 -0.437577,2.03846 -0.10241,0.10241 -0.359159,-0.80678 -0.570521,-2.02046 -1.365902,-7.8436 -8.483301,-13.94308 -16.242161,-13.91923 -2.550646,0.008 -4.45068,0.64749 -6.447522,2.17055 l -1.052498,0.80278 -2.748597,-1.3704 c -2.486006,-1.23946 -3.051127,-1.3862 -5.915203,-1.53602 -3.859372,-0.201865 -5.62716,0.35592 -7.701203,2.42996 -2.143247,2.14325 -2.508338,3.63502 -2.508338,10.24915 0,5.26938 0.04423,5.65725 0.766787,6.73107 1.524435,2.26532 4.819751,2.49463 6.838533,0.47585 l 1.113741,-1.11373 v -3.50465 c 0,-4.78196 0.625377,-6.30585 2.576895,-6.27921 1.134667,0.0155 3.598973,2.17311 4.614638,4.04034 0.893698,1.643 1.001178,2.18247 1.130586,5.67429 0.08783,2.37053 0.323468,4.21214 0.610978,4.77519 1.363164,2.66964 6.334351,2.5144 7.640733,-0.23858 0.412456,-0.8692 0.52905,-2.28499 0.529455,-6.42954 4.31e-4,-4.38818 0.102791,-5.51955 0.586859,-6.48862 0.813264,-1.62798 2.162714,-1.74762 3.924063,-0.34787 3.210979,2.55177 3.872263,4.55598 3.872263,11.73596 0,5.75359 0.126847,6.19434 2.135071,7.41889 1.255291,0.76545 2.50626,0.81471 4.072306,0.16039 z m 12.303854,-12.99817 c -0.57078,-0.57076 -0.49837,-1.98745 0.15128,-2.96029 1.68025,-2.5161 3.84608,-4.07581 6.29864,-4.53591 l 1.2879,-0.24162 -0.24162,1.2879 c -0.49069,2.61563 -2.37089,5.09835 -4.78,6.31178 -1.27648,0.64293 -2.16616,0.68819 -2.7162,0.13814 z m 23.34726,8.60336 c 2.0814,-0.83281 2.74243,-2.3747 2.74471,-6.40218 0.003,-4.07039 0.32776,-5.30376 1.87725,-7.11397 1.38234,-1.61496 3.02099,-2.54734 5.07936,-2.89011 l 1.42523,-0.23733 v 1.33553 c 0,1.99074 1.16523,5.38941 2.61743,7.63433 1.76673,2.73117 4.45325,5.05988 7.43807,6.44745 2.06597,0.96041 3.01857,1.19589 5.38339,1.33073 4.37366,0.24937 6.0234,-0.96591 6.0234,-4.43716 0,-1.25947 -0.19315,-1.74141 -1.09029,-2.72036 -0.98029,-1.06967 -1.34054,-1.22113 -3.57039,-1.50112 -2.87782,-0.36136 -4.84021,-1.36493 -6.22875,-3.18541 -0.89869,-1.17823 -1.97162,-3.98859 -1.76239,-4.61626 0.0556,-0.16677 1.34817,-0.33822 2.8724,-0.38098 4.10581,-0.11521 5.56288,-1.42607 5.32308,-4.789 -0.21107,-2.95998 -2.03012,-4.216965 -5.89661,-4.074654 l -2.22262,0.08175 -0.17227,-3.076477 c -0.16372,-2.923557 -0.22655,-3.130736 -1.26401,-4.168201 -0.9879,-0.987895 -1.28186,-1.091725 -3.09091,-1.091725 -1.81048,0 -2.10269,0.103424 -3.09553,1.095794 -1.05764,1.057136 -1.10034,1.205543 -1.21014,4.205477 l -0.11382,3.109684 -2.77669,0.378627 c -6.09424,0.831015 -11.51711,5.307095 -13.58474,11.212935 -0.76831,2.19456 -1.21395,7.37447 -0.87075,10.12132 0.43013,3.44264 3.00002,4.99786 6.16559,3.73126 z M 42.514144,124.0172 c 1.084273,-0.28242 2.854532,-0.98418 3.933912,-1.55949 2.338562,-1.24645 5.936268,-4.92846 7.143585,-7.31099 1.063905,-2.0995 1.834976,-5.32425 1.845673,-7.7188 0.02028,-4.53304 3.856584,-8.380244 8.361283,-8.384959 2.258357,-0.0025 4.383631,-2.031204 4.383631,-4.184729 0,-1.374153 -0.843683,-3.030405 -1.942075,-3.812528 -1.974713,-1.406118 -7.345365,-0.682019 -11.05173,1.490062 -5.151774,3.019137 -8.102709,7.882854 -8.628184,14.220944 -0.273556,3.29953 -0.677875,4.43357 -2.197874,6.16477 -1.455816,1.65807 -3.223071,2.51746 -5.711877,2.77759 -2.612156,0.27303 -4.013432,1.19182 -4.663448,3.05778 -0.433344,1.24396 -0.433344,1.58464 0,2.8286 0.973725,2.79519 3.91329,3.6335 8.527104,2.43175 z"
       id="path1-1" /></g></svg>
